<?xml version="1.0" encoding="utf-8"?>
<!-- Generator: Adobe Illustrator 21.1.0, SVG Export Plug-In . SVG Version: 6.00 Build 0)  -->
<svg version="1.1" id="レイヤー_1" xmlns="http://www.w3.org/2000/svg" xmlns:xlink="http://www.w3.org/1999/xlink" x="0px"
	 y="0px" viewBox="0 0 56 56" style="enable-background:new 0 0 56 56;" xml:space="preserve">
<style type="text/css">
	.st0{fill:#FFFFFF;}
</style>
<g>
	<polygon class="st0" points="56,13 28,29 0,13 0,5 28,21 56,5 	"/>
</g>
<g>
	<path class="st0" d="M2.4,50.8c0,0.6,0.2,1,0.4,1.4c0.4,0.7,1.2,1,2.3,1c0.5,0,0.9-0.1,1.3-0.2c0.8-0.3,1.2-0.8,1.2-1.5
		c0-0.5-0.2-0.9-0.5-1.2c-0.3-0.2-0.9-0.4-1.6-0.6l-1.3-0.3c-0.9-0.2-1.5-0.4-1.8-0.7c-0.6-0.4-0.9-1-0.9-1.9c0-0.9,0.3-1.6,0.9-2.2
		c0.6-0.6,1.5-0.9,2.6-0.9c1,0,1.9,0.3,2.6,0.8c0.7,0.5,1.1,1.3,1.1,2.4H7.3c-0.1-0.5-0.2-1-0.4-1.2c-0.4-0.5-1.1-0.8-2-0.8
		c-0.8,0-1.3,0.2-1.7,0.5s-0.5,0.7-0.5,1.2c0,0.5,0.2,0.9,0.6,1.1c0.3,0.1,0.9,0.3,1.8,0.5l1.4,0.3c0.7,0.2,1.2,0.4,1.5,0.6
		c0.6,0.5,0.9,1.2,0.9,2c0,1.1-0.4,1.9-1.2,2.4C6.9,54.1,6,54.3,5,54.3c-1.2,0-2.2-0.3-2.9-1c-0.7-0.6-1-1.5-1-2.6H2.4z"/>
	<path class="st0" d="M17.7,44.7c0.7,0.7,1.1,1.4,1.2,2.3h-1.3c-0.1-0.6-0.4-1.2-0.9-1.5s-1.1-0.6-1.9-0.6c-1,0-1.8,0.3-2.4,1
		c-0.6,0.7-0.9,1.8-0.9,3.2c0,1.2,0.3,2.1,0.8,2.9c0.5,0.7,1.3,1.1,2.4,1.1c1,0,1.7-0.4,2.2-1.2c0.3-0.4,0.5-0.9,0.6-1.6h1.3
		c-0.1,1.1-0.5,1.9-1.2,2.7c-0.8,0.9-1.9,1.3-3.2,1.3c-1.2,0-2.1-0.4-2.9-1.1c-1-0.9-1.5-2.4-1.5-4.3c0-1.5,0.4-2.7,1.2-3.6
		c0.8-1,2-1.5,3.5-1.5C16,43.7,17,44,17.7,44.7z"/>
	<path class="st0" d="M20.6,44h4.6c0.8,0,1.4,0.1,1.9,0.3c0.9,0.4,1.4,1.2,1.4,2.4c0,0.6-0.1,1.1-0.4,1.5s-0.6,0.7-1,0.9
		c0.4,0.2,0.7,0.4,0.9,0.6s0.3,0.7,0.3,1.3l0,1.3c0,0.4,0,0.7,0.1,0.9c0.1,0.3,0.2,0.5,0.4,0.6V54h-1.7c0-0.1-0.1-0.2-0.1-0.3
		S27,53.3,27,52.9l-0.1-1.7c0-0.7-0.3-1.1-0.7-1.3c-0.3-0.1-0.6-0.2-1.2-0.2h-3V54h-1.4V44z M25,48.6c0.6,0,1.1-0.1,1.5-0.4
		s0.5-0.7,0.5-1.4c0-0.7-0.3-1.2-0.8-1.5c-0.3-0.1-0.6-0.2-1.1-0.2H22v3.4H25z"/>
	<path class="st0" d="M38.6,45.4c0.7,0.9,1,2,1,3.4c0,1.5-0.4,2.7-1.1,3.7c-0.9,1.2-2.2,1.8-3.8,1.8c-1.5,0-2.8-0.5-3.6-1.5
		c-0.8-1-1.2-2.2-1.2-3.7c0-1.4,0.3-2.5,1-3.5c0.9-1.2,2.1-1.9,3.8-1.9C36.5,43.7,37.8,44.3,38.6,45.4z M37.4,51.8
		c0.5-0.9,0.8-1.8,0.8-3c0-1.2-0.3-2.1-0.9-2.9c-0.6-0.7-1.5-1.1-2.5-1.1c-1,0-1.9,0.4-2.5,1.1c-0.7,0.7-1,1.8-1,3.2
		c0,1.1,0.3,2.1,0.8,2.8c0.6,0.8,1.5,1.1,2.7,1.1C36,53.1,36.9,52.7,37.4,51.8z"/>
	<path class="st0" d="M41.2,44h1.4v8.8h5V54h-6.4V44z"/>
	<path class="st0" d="M48.9,44h1.4v8.8h5V54h-6.4V44z"/>
</g>
</svg>
